<?xml version="1.0" encoding="utf-8"?>
<!-- Generator: Adobe Illustrator 22.0.1, SVG Export Plug-In . SVG Version: 6.00 Build 0)  -->
<svg version="1.1" id="Layer_1" xmlns="http://www.w3.org/2000/svg" xmlns:xlink="http://www.w3.org/1999/xlink" x="0px" y="0px"
	 viewBox="0 0 107.7 87.5" style="enable-background:new 0 0 107.7 87.5;" xml:space="preserve">
<style type="text/css">
	.st0{fill:none;stroke:#000000;stroke-width:3;stroke-miterlimit:10;}
	.st1{fill:none;stroke:#000000;stroke-width:3;stroke-linecap:round;stroke-linejoin:round;stroke-miterlimit:10;}
	.st2{fill:none;stroke:#000000;stroke-width:2;stroke-linecap:round;stroke-linejoin:round;stroke-miterlimit:10;}
</style>
<polygon class="st0" points="1.5,7.2 1.5,71.3 47.7,85.5 47.7,21 "/>
<line class="st0" x1="49.1" y1="21.4" x2="59.1" y2="21.4"/>
<line class="st0" x1="58.7" y1="86" x2="49.2" y2="86"/>
<polygon class="st0" points="60.2,21.1 106.2,7.2 106.2,72.2 60.2,85.5 "/>
<path d="M52.7,18.7L2.6,5l5.9-5c0,0,11.1,8.8,23,9.4C43.5,9.9,50,12,52.7,18.7z"/>
<path d="M56.3,18.7L103.9,5l-6.1-3.8c0,0-9.4,7.1-19.2,8.2C71.2,10.2,63.1,7.7,56.3,18.7z"/>
<path class="st1" d="M93.9,31l-15,4.2c-1.6,0.5-3.4-0.5-3.8-2.2l0,0c-0.5-1.6,0.5-3.4,2.2-3.8l15-4.2c1.6-0.5,3.4,0.5,3.8,2.2v0
	C96.5,28.8,95.5,30.5,93.9,31z"/>
<line class="st2" x1="75.1" y1="68" x2="94.9" y2="63.1"/>
<line class="st2" x1="80.8" y1="58.1" x2="94.5" y2="54.5"/>
</svg>
