<?xml version="1.0" encoding="utf-8"?>
<!-- Generator: Adobe Illustrator 22.0.1, SVG Export Plug-In . SVG Version: 6.00 Build 0)  -->
<svg version="1.1" id="Layer_1" xmlns="http://www.w3.org/2000/svg" xmlns:xlink="http://www.w3.org/1999/xlink" x="0px" y="0px"
	 viewBox="0 0 71.4 47.6" style="enable-background:new 0 0 71.4 47.6;" xml:space="preserve">
<style type="text/css">
	.st0{fill:#38373A;}
</style>
<path class="st0" d="M69.2,14.9c-0.5,0.2-0.6,0.7-0.6,1.3v11.2L31.9,44.5l-28-16.8C1.1,21,5,18.2,5.2,18c1.8-1.4,1.3-0.9,0.2-1.6
	c-0.7-0.4-1.3-0.9-2-0.5c-0.1,0-6.1,3.9-2,13.4C1.6,29.6,1.8,29.8,2,30l29.1,17.4c0.2,0.1,0.5,0.2,0.7,0.2c0.2,0,0.4,0,0.6-0.1
	l38.2-17.8c0.5-0.2,0.8-0.7,0.8-1.3V16.2c0-0.1,0-0.1,0-0.2L69.2,14.9z"/>
<path class="st0" d="M31.8,46.3c-0.4,0-0.8-0.3-0.8-0.8V30.7c0-0.4,0.3-0.8,0.8-0.8c0.4,0,0.8,0.3,0.8,0.8v14.9
	C32.5,46,32.2,46.3,31.8,46.3z"/>
<path class="st0" d="M41.6,0L3.6,15.9l28.1,17l39.7-16.7L41.6,0z M35.9,9.8l6.3-2.6l12.7,7l-6.4,2.8L35.9,9.8z"/>
</svg>
